<svg xmlns="http://www.w3.org/2000/svg" viewBox="0 0 24 24" width="100%" height="100%">
  <!-- Coursera logo -->
  <path fill="currentColor" d="M12 2C6.486 2 2 6.486 2 12s4.486 10 10 10 10-4.486 10-10S17.514 2 12 2zm0 18c-4.411 0-8-3.589-8-8s3.589-8 8-8 8 3.589 8 8-3.589 8-8 8zm-3.26-8c0 1.8 1.46 3.26 3.26 3.26.577 0 1.116-.156 1.587-.426l.892.893c-.722.5-1.595.793-2.479.793-2.485 0-4.5-2.015-4.5-4.5s2.015-4.5 4.5-4.5c.884 0 1.757.293 2.479.793l-.892.893a3.23 3.23 0 0 0-1.587-.426c-1.8 0-3.26 1.46-3.26 3.26zm8.52 0l-.892-.893a3.23 3.23 0 0 0 .426-1.587c0-1.8-1.46-3.26-3.26-3.26-.577 0-1.116.156-1.587.426l-.892-.893c.722-.5 1.595-.793 2.479-.793 2.485 0 4.5 2.015 4.5 4.5 0 .884-.293 1.757-.793 2.479z"/>
</svg>