<svg xmlns="http://www.w3.org/2000/svg" viewBox="0 0 24 24" width="100%" height="100%">
  <!-- Microsoft Teams logo -->
  <path fill="currentColor" d="M19.25 4.5h-4.5v1.25h4.5V4.5zm-4.5 2.5h4.5v8.75c0 .69-.56 1.25-1.25 1.25h-3.25V7zm-1.25 10h-7.5c-.69 0-1.25-.56-1.25-1.25V7h8.75v10zm-10-11.25c0-.69.56-1.25 1.25-1.25h7.5v1.25h-8.75V5.75zm10.75-3.25h-8.5C4.28 2.5 3 3.78 3 5.25v10.5c0 1.47 1.28 2.75 2.75 2.75h8.5c.15 0 .25-.1.25-.25v-1.5c0-.15.1-.25.25-.25h1.5c1.47 0 2.75-1.28 2.75-2.75v-8.5C19 3.78 17.72 2.5 16.25 2.5zM14 8.75c0 .97-.78 1.75-1.75 1.75S10.5 9.72 10.5 8.75 11.28 7 12.25 7 14 7.78 14 8.75zm-6.25 5.5h4.5c.41 0 .75-.34.75-.75 0-1.24-1.01-2.25-2.25-2.25S8.5 12.26 8.5 13.5c0 .41.34.75.75.75z"/>
</svg>