<svg xmlns="http://www.w3.org/2000/svg" viewBox="0 0 24 24" width="100%" height="100%">
  <!-- Salesforce logo -->
  <path fill="currentColor" d="M10.54 11.34a2.91 2.91 0 0 0-1.09-.21c-1.11 0-1.83.76-1.83 1.94 0 1.12.72 1.94 1.83 1.94.37 0 .74-.08 1.09-.21v-3.46zm1.59 4.13c-.63.33-1.41.54-2.15.54-1.89 0-3.39-1.33-3.39-3.45s1.5-3.45 3.39-3.45c.74 0 1.52.21 2.15.54v5.82zM5.92 9.71a1.58 1.58 0 0 0-1.59 1.57c0 .87.71 1.57 1.59 1.57s1.59-.7 1.59-1.57c0-.87-.71-1.57-1.59-1.57zm12.16 0a1.58 1.58 0 0 0-1.59 1.57c0 .87.71 1.57 1.59 1.57s1.59-.7 1.59-1.57c0-.87-.71-1.57-1.59-1.57zm-6.08-3.7a1.58 1.58 0 0 0-1.59 1.57c0 .87.71 1.57 1.59 1.57s1.59-.7 1.59-1.57c0-.87-.71-1.57-1.59-1.57zm0 11.98a1.58 1.58 0 0 0-1.59 1.57c0 .87.71 1.57 1.59 1.57s1.59-.7 1.59-1.57c0-.87-.71-1.57-1.59-1.57zM12 2C6.48 2 2 6.48 2 12s4.48 10 10 10 10-4.48 10-10S17.52 2 12 2z"/>
</svg>